# xmcd CD database file
#
# Track frame offsets:
#	150
#	22267
#	39961
#	60986
#	82700
#	102038
#	119707
#	147854
#	171026
#	190956
#	203619
#	228261
#	250429
#	268054
#	280487
#	293325
#	307388
#
# Disc length: 4399 seconds
#
# Revision: 0
# Processed by: cddbd v1.4PL0 Copyright (c) Steve Scherf et al.
# Submitted via: CDex 1.50Beta7
#
DISCID=f1112d11
DTITLE=Various  - Iowa Blues Bands Compilation IV
DYEAR=1997
DGENRE=Blues
TTITLE0=Sidetrack Lounge - Bo Ramsey
TTITLE1=Blues In My Kitchen - Effie Burt
TTITLE2=IOU - Bryce and Merrill
TTITLE3=Two Trains - The Graveyard Blues Band
TTITLE4=Don't Wanna Play No More - J.C. Anderson and The Groove
TTITLE5=She's Got The Mojo and The Say So - Bob Dorr - Molly Nova and The Blue Band
TTITLE6=Where Have All The Dreams Gone? - The Mother Blues Band
TTITLE7=Sweet Sweet Woman - Tom Gary
TTITLE8=Walk To Keep From Cryin' - Erick Hovey
TTITLE9=Blue Room - The Unidynes
TTITLE10=I'm A Business Man - Craig Erickson Band
TTITLE11=Supercharge - Blue Janey
TTITLE12=Sing The Blues - Dangerous Blues
TTITLE13=Tell Me - The Delta Drifters
TTITLE14=I-380 Shuffle - Rush Cleveland and No Control
TTITLE15=Blue Blood - Patrick Hazell
TTITLE16=You Burnt Me Down - Naked Gypsies
EXTD=YEAR: 1997
EXTT0=
EXTT1=
EXTT2=
EXTT3=
EXTT4=
EXTT5=
EXTT6=
EXTT7=
EXTT8=
EXTT9=
EXTT10=
EXTT11=
EXTT12=
EXTT13=
EXTT14=
EXTT15=
EXTT16=
PLAYORDER=
